<svg id="visual" viewBox="0 0 900 600" width="900" height="600" xmlns="http://www.w3.org/2000/svg" xmlns:xlink="http://www.w3.org/1999/xlink" version="1.1"><rect x="0" y="0" width="900" height="600" fill="#EC8886"></rect><path d="M0 174L21.5 169.8C43 165.7 86 157.3 128.8 160.5C171.7 163.7 214.3 178.3 257.2 167.3C300 156.3 343 119.7 385.8 122C428.7 124.3 471.3 165.7 514.2 186.7C557 207.7 600 208.3 642.8 204C685.7 199.7 728.3 190.3 771.2 174.8C814 159.3 857 137.7 878.5 126.8L900 116L900 0L878.5 0C857 0 814 0 771.2 0C728.3 0 685.7 0 642.8 0C600 0 557 0 514.2 0C471.3 0 428.7 0 385.8 0C343 0 300 0 257.2 0C214.3 0 171.7 0 128.8 0C86 0 43 0 21.5 0L0 0Z" fill="#FFF" stroke-linecap="round" stroke-linejoin="miter"></path></svg>